<svg xmlns="http://www.w3.org/2000/svg" xmlns:xlink="http://www.w3.org/1999/xlink" viewBox="0 0 521.74 111.8"><defs><style>.cls-1{fill:none;}.cls-2,.cls-4{fill:#ed8074;}.cls-2{fill-rule:evenodd;}.cls-3{clip-path:url(#clip-path);}</style><clipPath id="clip-path"><rect class="cls-1" x="135.67" y="25.51" width="386.07" height="86.28"/></clipPath></defs><title>FosterFix_Logo_Web</title><g id="Layer_2" data-name="Layer 2"><g id="Layer_1-2" data-name="Layer 1"><path class="cls-2" d="M29.82,27.8,0,55.62l6,0,6,0,0,27.15c0,22.5,0,27.2.13,27.46a1.54,1.54,0,0,0,1,.94c.29.08,8.19.1,46.64.1s46.35,0,46.64-.1a1.55,1.55,0,0,0,1-.94c.08-.26.11-5,.12-27.46l0-27.15h6c3.28,0,6,0,6-.06s0-.07-.06-.07S105.85,43,89.49,27.77,59.71,0,59.68,0,46.21,12.5,29.82,27.8M80.37,9.14v5.19l6.9,6.55,8,7.54,1.06,1V4H80.37V9.14M48.93,40A5.66,5.66,0,0,0,45,42.58a8.75,8.75,0,0,0-.89,2.5,9.17,9.17,0,0,0,2.53,7.63,6.36,6.36,0,0,0,4.67,2.08,4.8,4.8,0,0,0,3.79-1.58,4.73,4.73,0,0,0,1.09-1.52A6.62,6.62,0,0,0,57,48.42a6.83,6.83,0,0,0-.12-1.92,10.47,10.47,0,0,0-1.32-3.21A9.15,9.15,0,0,0,53,40.77,6,6,0,0,0,48.93,40m19.64,0c-2.81.51-5.19,3-6.13,6.42a6.63,6.63,0,0,0-.17,2,5.28,5.28,0,0,0,.22,2.11,5.74,5.74,0,0,0,5.45,4.42c3.17,0,6.12-2.68,7.11-6.44a9.07,9.07,0,0,0,.11-3.25,5.81,5.81,0,0,0-6.59-5.27M33.06,50.25a5.65,5.65,0,0,0-4.45,4.13,7.88,7.88,0,0,0,0,3.28A9.25,9.25,0,0,0,31.17,62a7.56,7.56,0,0,0,3.7,2.18,8.14,8.14,0,0,0,3.15,0,5.51,5.51,0,0,0,4.12-5.31,7.66,7.66,0,0,0-1.69-5.24,8.16,8.16,0,0,0-6.13-3.46,8.83,8.83,0,0,0-1.26,0m51.37,0a8.34,8.34,0,0,0-4.66,2.45,8.09,8.09,0,0,0-2.58,5.88A5.53,5.53,0,0,0,80.77,64a7,7,0,0,0,6.31-1,10.29,10.29,0,0,0,1.25-1.1,8.18,8.18,0,0,0,2.6-5.45,5.76,5.76,0,0,0-1.69-4.61,5.18,5.18,0,0,0-3.74-1.6,10.65,10.65,0,0,0-1.07,0m-26.71,9.9a16.46,16.46,0,0,0-11.56,5.75c-1.75,2-2.75,3.64-5.39,8.66-2.1,4-2.76,5.55-3.16,7.42a13,13,0,0,0,0,4.4c.93,4.7,4.07,8.23,7.9,8.9a11.27,11.27,0,0,0,3.77-.12,9.51,9.51,0,0,0,2.91-1.47c.37-.28,1.44-1.23,2.37-2.1s1.94-1.78,2.23-2a4.15,4.15,0,0,1,4.65-.67,12.71,12.71,0,0,1,3,2.48,21.58,21.58,0,0,0,3.35,2.92,6.8,6.8,0,0,0,5,1.12,10.37,10.37,0,0,0,5.67-2.86,11.28,11.28,0,0,0,3.36-6c.64-3.1,0-5.75-2.44-9.58-.92-1.47-1.65-2.72-2.86-4.89-1.06-1.91-1.88-3.29-2.58-4.33-3-4.5-6.37-6.73-11.17-7.45a30,30,0,0,0-5.11-.15"/><g class="cls-3"><path class="cls-4" d="M161.93,28.16l.7,2h0v.47h0a5.25,5.25,0,0,0,0,2.05h0a5,5,0,0,1-.06,2h0a4.12,4.12,0,0,0-.18.75h0a1,1,0,0,1-.29.65h0c-.15.63-.46.83-.93.59h0a2.58,2.58,0,0,1-1.42.29h0c-.46,0-.93-.06-1.39-.06h0a7.09,7.09,0,0,1-.77,0h0a1,1,0,0,0-.76.18h-.35a1.38,1.38,0,0,0-1.17-.18h0c-.39.12-.78.25-1.17.4h0a.78.78,0,0,1-.83,0h0a2.91,2.91,0,0,0-2,0h0a.85.85,0,0,1-.65.23h0a.81.81,0,0,0-.64.25h0c-.39.15-.67.11-.83-.12h0a1.3,1.3,0,0,0-1.28.23h0a5.57,5.57,0,0,0-1.17,1.4h0a2.45,2.45,0,0,0-.35,1.53h0c0,.46,0,.93-.06,1.39h0c0,.48-.1.95-.18,1.42h0a.49.49,0,0,0-.05.4h0a1.7,1.7,0,0,1,.05.41h0a7.11,7.11,0,0,0,0,2.52h0a6.67,6.67,0,0,1,0,2.52h0v.81h0a4.23,4.23,0,0,1,0,1.42h0a6.56,6.56,0,0,0,.24,3.51h0a1.37,1.37,0,0,1-.13,1.28h0a3,3,0,0,0-.22,1.06h0a5.12,5.12,0,0,0,.11,1h0a1.06,1.06,0,0,0,.07.42h0a.59.59,0,0,1-.07.41h0a5.63,5.63,0,0,0,0,1.64h0v.7h0a2.66,2.66,0,0,0-.18,1.17h0a3.84,3.84,0,0,1-.05,1.17h0a1.1,1.1,0,0,0,0,1h0a2,2,0,0,1,.23,1h0c.08.39.14.76.18,1.12h0a2.2,2.2,0,0,1-.18,1.1h0a.66.66,0,0,0-.05.7h0a1.69,1.69,0,0,1,.16.7h0A6.15,6.15,0,0,0,147,71.6h0a7.59,7.59,0,0,0,1.35,1.51h0a3.24,3.24,0,0,0,1.76.7h0l1.64.24h0a9.27,9.27,0,0,1,2.05.23h0a16.53,16.53,0,0,0,2,.36h0a.49.49,0,0,0,.47,0h0a.38.38,0,0,1,.46.11h0a8.58,8.58,0,0,0,.53.7h0a1.44,1.44,0,0,1,.3,1h0a5.05,5.05,0,0,1,0,1.34h0a2.79,2.79,0,0,0,.18,1.22h0a1.38,1.38,0,0,1-.11,1h0l-.23,1.51h0c-.09.39-.18.8-.29,1.23h0a3.45,3.45,0,0,1-.65,1.24h0a1.27,1.27,0,0,1-1.17.59h0a18.82,18.82,0,0,0-2.12.11h0l-2.1.23h-1a6.06,6.06,0,0,0-1.06.11h0a3,3,0,0,0-2.46,1.89h0a5.18,5.18,0,0,0-.47,2.34h0a1.89,1.89,0,0,1-.05,1h0a1.87,1.87,0,0,0-.06,1.06h0a4.6,4.6,0,0,1,.06,1.17h0a3.84,3.84,0,0,0,.05,1.17h0a3.23,3.23,0,0,1,.07,1h0c-.05.28-.11.57-.18.88h0a7.84,7.84,0,0,0-.12,1.52h0a5.73,5.73,0,0,1,.12,1.94h0c-.08.66-.16,1.31-.23,1.93h0A2.14,2.14,0,0,0,146,102h0a.71.71,0,0,1,.11.46h0a2.37,2.37,0,0,0,0,1.06h0a1.72,1.72,0,0,1-.11,1h0a4.59,4.59,0,0,0,0,2.93h0a2.88,2.88,0,0,1,.11.81h0a1,1,0,0,1-.47.83h0a.45.45,0,0,0-.12.34h0a1,1,0,0,1-.52.77h0a4.9,4.9,0,0,1-1,.29h-.71c-.39,0-.63.08-.7.24h0a.93.93,0,0,1-1.06.23h0c-.62-.15-1.4-.31-2.34-.47h0c-.16,0-.25,0-.3.07h0a.22.22,0,0,1-.16,0h0c-.7.48-1.25.41-1.64-.22h0l-.7-1.06h0a1.24,1.24,0,0,1-.36-1.17h0a22.28,22.28,0,0,0,.11-2.28h0a6.83,6.83,0,0,0-.34-2.16h0v-.47h0a11.4,11.4,0,0,0,.23-5.63h0c-.08-.15-.1-.25-.07-.29h0c.05,0,.07-.13.07-.29h0a1.31,1.31,0,0,1,.06-.41h0a.5.5,0,0,0-.06-.4h0a2,2,0,0,1-.36-1.42h0a12.53,12.53,0,0,1,.36-1.4h0a1.16,1.16,0,0,0,.11-1.17h0a11.42,11.42,0,0,1,0-3.87h0a2.59,2.59,0,0,0,.07-.92h0c0-.32-.1-.67-.18-1.06h0a6.49,6.49,0,0,1,.23-3h0a1.71,1.71,0,0,0-.34-1.29h0a2.53,2.53,0,0,1-.12-.82h0l.46-1.87V78.26h0c0-.39,0-.78-.05-1.17h0a2.4,2.4,0,0,1,.18-1.17h0a.27.27,0,0,1,.05-.18h0a.21.21,0,0,0,.06-.17h0a4,4,0,0,1-.06-1.81h0a5.52,5.52,0,0,0,.06-1.82h0a3.78,3.78,0,0,0-.24-1.06h0a1.23,1.23,0,0,1,.13-1.51h0a1.79,1.79,0,0,0,.11-.7h0a2.4,2.4,0,0,1-.18-1.17h0a9.18,9.18,0,0,0,.07-1.17h0a6,6,0,0,0-.13-1.41h0a.56.56,0,0,1-.12-.59h0a1.81,1.81,0,0,0,.12-.58h0a5.57,5.57,0,0,0,.13-1.11h0a2.78,2.78,0,0,0-.25-1.12h0a2.49,2.49,0,0,1-.18-1.11h0a5.2,5.2,0,0,1,.3-1.1h0a2.09,2.09,0,0,0,.24-.59h0a18.85,18.85,0,0,1-.06-2.47h0c0-.78.1-1.6.18-2.45h0a4.26,4.26,0,0,0-.23-1.87h0a.76.76,0,0,1,0-.82h0a3.13,3.13,0,0,0,.11-1.46h0a3.11,3.11,0,0,1,.12-1.46h0a4.81,4.81,0,0,0-.07-1.65h0a3.88,3.88,0,0,1,.07-1.75h0a1,1,0,0,0,0-.65h0l-.23-.77h0a4.08,4.08,0,0,0-.07-.74h0a1,1,0,0,1,.18-.77h0a.46.46,0,0,0,.12-.36h0c0-.85,0-1.71.06-2.56h0a12.59,12.59,0,0,0-.18-2.59h0a15.22,15.22,0,0,1-.11-1.69h0a3.25,3.25,0,0,1,.45-1.58h0a1.55,1.55,0,0,0,.18-1h0a3.91,3.91,0,0,1,.07-1.12h0a4.52,4.52,0,0,1,2.23-2.68h0a2.11,2.11,0,0,1,1.51-.54h0a4.58,4.58,0,0,0,1.64-.18h0l2.34-.34h0a1,1,0,0,0,.41-.07h0a.57.57,0,0,1,.41.07h0a2.76,2.76,0,0,0,1.35.11h0a2.33,2.33,0,0,1,1.23.12h0a.68.68,0,0,0,.7-.23h0a1.64,1.64,0,0,1,1.4-.11h0a3.66,3.66,0,0,0,1.42.16h0a4.55,4.55,0,0,1,1.51.18h0a2.37,2.37,0,0,0,1.89-.34h0a1.93,1.93,0,0,1,1.63,0h0a3,3,0,0,0,1.17.4h0c.39,0,.78.05,1.17.05h0a6.15,6.15,0,0,1,2-.11h0c.39,0,.66.23.81.7ZM212.07,89h0a3.51,3.51,0,0,1,.12,1h0a1.7,1.7,0,0,1-.12,1.06h0a4.27,4.27,0,0,0-.36,1.06h0a8.34,8.34,0,0,1-.11,1.4h0a3,3,0,0,0,.11,1.41h0a4.73,4.73,0,0,1-.58,3.16h0a4.61,4.61,0,0,0-.29,1.28h0a11,11,0,0,1-.18,1.28h0l-.41,1.3h0a3.67,3.67,0,0,1-.63,1.18h0c-.24.39-.48.75-.72,1.1h0a7.35,7.35,0,0,0-.59,1.11h0a1.36,1.36,0,0,1-.7.83h0c-.31.22-.62.46-.92.69h0a9.91,9.91,0,0,0-.95.82h0l-.35.47h0a1.78,1.78,0,0,1-1.29,1.06h0a2.41,2.41,0,0,0-1.28.81h0a1,1,0,0,1-.7.36h0a.9.9,0,0,0-.88.18h0a4.78,4.78,0,0,1-.65.52h0a.89.89,0,0,1-1.17.24h0a1,1,0,0,0-.82-.13h0a4.74,4.74,0,0,1-3.28,0h0a.59.59,0,0,0-.52,0h0a.57.57,0,0,1-.54,0h0a8.76,8.76,0,0,0-1.47-.11h0a3.71,3.71,0,0,1-1.33-.23h0c-.55-.24-1.08-.46-1.59-.65h0a5.67,5.67,0,0,1-1.47-.88h0a11,11,0,0,1-1.33-1.06h0a5,5,0,0,0-1.47-.92h0l-.71-.7h0a12.15,12.15,0,0,1-1-1.17h0a2.33,2.33,0,0,1-.48-1.53h0a4,4,0,0,1-.53-1h0a2.34,2.34,0,0,0-.64-1h0a1.75,1.75,0,0,1-.47-1.3h0a2.13,2.13,0,0,0-.11-1.22h0a12.33,12.33,0,0,0-.59-1.12h0a1.75,1.75,0,0,1-.36-1.28h0a2.47,2.47,0,0,0,.07-.88h0a1.6,1.6,0,0,1,0-.76h0a1.48,1.48,0,0,0-.34-1.52h0a1.5,1.5,0,0,1-.41-1.12h0c0-.34.09-.71.16-1.1h0a9.4,9.4,0,0,0,.3-1.76h0a9.5,9.5,0,0,0-.05-1.75h0a4.93,4.93,0,0,1-.12-1.18h0c.08-.07.12-.27.12-.58h0a4.77,4.77,0,0,1,.05-1.64h0a4.75,4.75,0,0,0,.06-1.64h0c0-.55,0-1.05-.06-1.52h0c0-.46-.09-.93-.17-1.41h0c-.08-.39-.14-.74-.18-1h0a1.65,1.65,0,0,1,.3-1.06h0a1.19,1.19,0,0,0,.11-.47h0v-.47h0a2.25,2.25,0,0,1-.06-.88h0a2.44,2.44,0,0,0-.05-.88h0V73.76h0a13.54,13.54,0,0,1,.11-1.71h0a2,2,0,0,0-.23-1.28h0a3.15,3.15,0,0,1,0-2.1h0a9.31,9.31,0,0,0,0-2.11h0a2.85,2.85,0,0,1,0-1.64h0a5,5,0,0,1,0-.59h0a4.05,4.05,0,0,0,.07-.7h0V60.35h0a4.93,4.93,0,0,0,.05-1.29h0a11.37,11.37,0,0,0-.17-1.28h0a7,7,0,0,1,.12-3.4h0a.27.27,0,0,1,.05-.18h0a.18.18,0,0,0,.06-.16h0a5.43,5.43,0,0,1-.11-1.93h0c.07-.67.15-1.31.22-1.94h0a.52.52,0,0,0-.11-.36h0a3.73,3.73,0,0,1-.18-1.4h0a6.26,6.26,0,0,1,.29-1.39h0a9.52,9.52,0,0,0,.12-1.76h0a9.42,9.42,0,0,1-.16-1.3h0a2.7,2.7,0,0,1,.16-1.28h0a2.9,2.9,0,0,0,.24-1.06h0a5.19,5.19,0,0,1,.12-1h0a1.6,1.6,0,0,1,.35-1.17h0a.54.54,0,0,0,.12-.72h0a5.75,5.75,0,0,1,.29-1.8h0c.2-.59.41-1.16.64-1.71h0a1.67,1.67,0,0,0,.35-1h0a2,2,0,0,1,.23-.83h0c.24-.39.46-.78.65-1.17h0A12,12,0,0,0,184.3,31h0c0-.39.16-.59.47-.59h0a1.67,1.67,0,0,0,1.06-.81h0A8.07,8.07,0,0,1,189,27.46h0a1.9,1.9,0,0,1,.47-.34h0a2.18,2.18,0,0,0,.47-.36h0a1,1,0,0,1,1.29-.59h0a8.27,8.27,0,0,0,1.05-.06h0c.32,0,.67-.09,1.06-.16h0a5.81,5.81,0,0,1,1.4-.25h.36a2.81,2.81,0,0,1,1.22-.18h0q.65.07,1.23.18h0a4,4,0,0,0,1.65.12h.47a.67.67,0,0,1,.46.24h0a2.22,2.22,0,0,0,1.3.7h0a4.83,4.83,0,0,1,2.34.94h0a5.36,5.36,0,0,0,.75.41h0a1.41,1.41,0,0,1,.65.52h0a7,7,0,0,1,1.4,1.64h0l.24.23h0a3.91,3.91,0,0,1,1.51,1.82h0a15.77,15.77,0,0,0,1.06,2h0c.16.39.28.58.36.58h0a1.79,1.79,0,0,1,.59,2.23h0a3.83,3.83,0,0,0,0,1.35h0a9.3,9.3,0,0,0,.34,1.33h0c.08.48.17,1,.24,1.47h0a5.3,5.3,0,0,1,0,1.59h0a3.35,3.35,0,0,0,.34,1.51h0a1.86,1.86,0,0,1,.25,1.29h0a2.35,2.35,0,0,0-.18,1.23h0c0,.43.06.85.06,1.24h0l.34,3.51h0a9.58,9.58,0,0,1-.11,1.75h0a6.29,6.29,0,0,0-.18,1.81h0a9.34,9.34,0,0,1,0,1.82h0v1.06h0a5.27,5.27,0,0,0,.12,1h0a8.47,8.47,0,0,1-.12,3h0a3.72,3.72,0,0,0-.13.93h0a1.52,1.52,0,0,0,.36.94h0a.46.46,0,0,1,.11.35h0a13.09,13.09,0,0,0-.11,3h0c.08,1,.11,2,.11,3h0v1h0a5.07,5.07,0,0,0,.12,1h0a3,3,0,0,1-.12.94h0a5.13,5.13,0,0,0-.11,1.29h0a4.1,4.1,0,0,1,.11,2.57h0a2.42,2.42,0,0,0,0,1.46h0a4.62,4.62,0,0,1,.25,1.46h0v1.13h0a6.3,6.3,0,0,0,.11,1.1h0a2.49,2.49,0,0,0,.12.82h0q.1.58.18,1.17h0a2,2,0,0,1-.3,1.17h0a.49.49,0,0,0-.18.47h0a1.58,1.58,0,0,1,.07.47h0a7.16,7.16,0,0,0-.13,1.35h0a3.2,3.2,0,0,0,.24,1.22ZM201.87,70h0a1.3,1.3,0,0,1,0-1.06h0a7.41,7.41,0,0,0,0-3.74h0a1.9,1.9,0,0,1,0-1.3h0a1,1,0,0,0,.13-1h0c0-.16,0-.26-.06-.29h0c-.05-.05-.07-.14-.07-.3h0a11.33,11.33,0,0,0,.18-1.41h0a3.38,3.38,0,0,0-.18-1.4h0a1.3,1.3,0,0,1,0-1.06h0a2.22,2.22,0,0,0,.13-.81h0a9.46,9.46,0,0,1-.36-2.52h0q0-1.23.12-2.52h0a1.47,1.47,0,0,0-.12-1.28h0a1.47,1.47,0,0,1,0-1.76h0a1.94,1.94,0,0,0,.12-1.53h0V46.66h0a6.32,6.32,0,0,0,.11-1.11h0a2.22,2.22,0,0,0-.34-1.12h0a.76.76,0,0,1-.11-.93h0a4.38,4.38,0,0,0,.11-1.7h0a10.8,10.8,0,0,0-.36-1.58h0a11.12,11.12,0,0,0-.63-1.87h0a4.6,4.6,0,0,0-1.24-1.64h0a1,1,0,0,0-.7-.36h0a.91.91,0,0,1-1.17-.34h0a.89.89,0,0,0-1.17-.24h-.59c-.23-.16-.55-.11-.94.13h0a1,1,0,0,1-.59.34h0a1.75,1.75,0,0,0-1.22.65h0a8.58,8.58,0,0,0-.76,1.1h0c-.24.47-.47.92-.7,1.35h0a8.91,8.91,0,0,0-.59,1.35h0c-.16.54-.32,1.05-.47,1.51h0a5.21,5.21,0,0,0-.24,1.65h0a5.53,5.53,0,0,0,0,2.22h0a1.26,1.26,0,0,1-.12.59h0a1.52,1.52,0,0,0-.17.88h0a6.9,6.9,0,0,1,.06,1h0a5.57,5.57,0,0,1,0,2.81h0a2.08,2.08,0,0,0,.11,1.53h0c.17.3.21.54.12.7h0a15,15,0,0,0-.16,3h0a25,25,0,0,1-.07,2.88h0v1.64h0a11.53,11.53,0,0,0,.11,1.58h0a6,6,0,0,1,0,1.69h0v1.29h0a8.39,8.39,0,0,0,.12,1.41h0a2.3,2.3,0,0,1,.13,1.17h0a2.84,2.84,0,0,0-.25,1.06h0v1h0a4.17,4.17,0,0,0,.07.71h0a1.51,1.51,0,0,1-.18.82h0a1.36,1.36,0,0,0,.11.58h0a2.66,2.66,0,0,1,.25,1.06h0a4.77,4.77,0,0,1-.13,1.06h0v1h0a5.8,5.8,0,0,0,.13,2h0a4.24,4.24,0,0,1,0,1.94h0q-.24.24,0,.36h0a2.9,2.9,0,0,1,.11,1.4h0c-.07.46-.15.89-.24,1.28h0a3.17,3.17,0,0,1,0,.59h0a1,1,0,0,0,0,.58h0a1.84,1.84,0,0,1,.13,1.41h0a4.71,4.71,0,0,0-.13,2.35h0v.81h0c0,.63,0,1.25,0,1.87h0a6,6,0,0,0,.18,1.88h0c.07.31.13.58.16.82h0a2.62,2.62,0,0,1,0,.94h0l.47,2.93h0L191,97h0A7.68,7.68,0,0,0,192.16,99h0a12.37,12.37,0,0,0,1.64,1.69h0c0,.09.12.13.34.13h0a2.85,2.85,0,0,1,1,.46h0a2.1,2.1,0,0,0,1.06.18h0a8.45,8.45,0,0,0,1-.18h0a1.84,1.84,0,0,0,.58-.7h0l.25-.23h0a2.23,2.23,0,0,0,1.1-.58h0a1.58,1.58,0,0,1,1.35-.36h0c.08,0,.12,0,.12-.11h0a9.6,9.6,0,0,1,.94-1.65h0v-.22h0a1.41,1.41,0,0,1-.06-1.06h0a1.19,1.19,0,0,0-.05-.94h0a.22.22,0,0,1,.05-.17h0a.24.24,0,0,0,.06-.17h0a2.66,2.66,0,0,0,.34-1.53h0A4.23,4.23,0,0,1,202,92h0a1.39,1.39,0,0,0,0-.81h0a3.56,3.56,0,0,1-.18-1.46h0c0-.51.1-1,.18-1.58h0a4.7,4.7,0,0,0,.23-1.46h0a2.64,2.64,0,0,0-.47-1.47h0a1.85,1.85,0,0,1,0-1.28h0a2.42,2.42,0,0,0,.36-1.3h0v-1.4h0a8.44,8.44,0,0,0-.07-1.06h0a8.27,8.27,0,0,0-.18-1h0a7.07,7.07,0,0,0-.05-1h0a2,2,0,0,1,.18-1h0a2.08,2.08,0,0,0,.12-1.52h0a5.61,5.61,0,0,1-.18-1.92h0c0-.67.06-1.36.06-2.05h0a2.31,2.31,0,0,0-.13-1.64Zm60.91,16.39h0a4.6,4.6,0,0,1,.13,3h0a2.86,2.86,0,0,1,.12,1.35h0a6.25,6.25,0,0,1-.36,1.21h0a5.16,5.16,0,0,0-.12,1h0v1h0a4.83,4.83,0,0,1-.06.82h0c0,.24-.09.51-.16.83h0A7.12,7.12,0,0,0,262,97h0a4.11,4.11,0,0,0,0,1.4h0a1.11,1.11,0,0,1-.12.83h0a2.91,2.91,0,0,0-.47.93h0l-.23.94h0a4,4,0,0,1-.29.81h0a6.71,6.71,0,0,1-.42.72h0a14.78,14.78,0,0,1-.93,1.46h0a10.29,10.29,0,0,0-.83,1.34h0a13,13,0,0,1-2.1,2.47h0a9,9,0,0,0-.83.7h0c-.3.46-.61.7-.92.7h0a1.43,1.43,0,0,0-.88.22h0c-.2.17-.38.32-.54.48h0a3,3,0,0,1-.7.58h0l-2.16.47h0a10.76,10.76,0,0,0-2.17.7h0a.61.61,0,0,1-.53,0h0a3.66,3.66,0,0,1-.52-.23h0c-.32-.16-.55-.2-.7-.11h0a2.75,2.75,0,0,1-1.35.11h0a5.54,5.54,0,0,1-1.24-.35h0a15.62,15.62,0,0,1-1.51-.52h0a3.15,3.15,0,0,0-1.65-.18h0c-.23.07-.51,0-.81-.36h0a2.34,2.34,0,0,0-.94-.88h0c-.39-.19-.78-.41-1.17-.63h0a1.55,1.55,0,0,0-.48-.36h0a2.21,2.21,0,0,1-.47-.34h0l-.11-.13h0a2.27,2.27,0,0,1-1.17-1h0a6.37,6.37,0,0,0-.82-1.3h0c-.16-.16-.28-.23-.35-.23h0a1,1,0,0,1-.93-1.17h0l-.36-.94h0a5.4,5.4,0,0,1-.94-2.46h0a.7.7,0,0,0-.12-.47h0a8.13,8.13,0,0,1-.34-1.11h0a8.75,8.75,0,0,0-.36-1.1h0a4.09,4.09,0,0,1-.22-1.17h0v-.59h0a2.59,2.59,0,0,1-.48-1.46h0V93h0a9.58,9.58,0,0,0-.24-1.75h0a2.74,2.74,0,0,1-.16-1.29h0c0-.46.05-.89.05-1.28h0c.07-.39.13-.72.17-1h0a1.83,1.83,0,0,0-.17-1h0a1.26,1.26,0,0,1,.11-1.17h0c.09-.23.18-.46.29-.7h0a6,6,0,0,1,.43-.7h0a1.26,1.26,0,0,1,1.28-.81h2.57a3.56,3.56,0,0,1,1,.11h0a2.44,2.44,0,0,0,1,0h0a.48.48,0,0,1,.34.11h0a1.4,1.4,0,0,0,.36.23h0q.48.72.93,1.35h0a1.85,1.85,0,0,1,.24,1.58h0a3.5,3.5,0,0,0,.18,1.12h0a3.61,3.61,0,0,1,.16,1.1h0v.36h0a4.46,4.46,0,0,0,.07,2.16h0c.19.67.37,1.31.52,1.94h0a.64.64,0,0,0,.07.34h0a.9.9,0,0,1,.06.36h0c.15.63.3,1.17.46,1.64h0a1.44,1.44,0,0,1,.35,1.06h0a3.73,3.73,0,0,0,.65,1.57h0a2.44,2.44,0,0,0,1.34,1h0a2.55,2.55,0,0,1,.54.35h0a1.15,1.15,0,0,0,.76.23h0l1.17.36h0a2.62,2.62,0,0,0,.64-.07h0a2.61,2.61,0,0,1,.53-.06h0a5.74,5.74,0,0,0,2.35-.23h0a2,2,0,0,0,1.75-1.4h0a1.21,1.21,0,0,1,.46-.58h0a1.55,1.55,0,0,0,.83-1.06h0c.15-.39.28-.72.4-1h0c.12-.28.26-.58.41-.88h0a6.24,6.24,0,0,0,.36-1.23h0a2.35,2.35,0,0,0-.11-1.24h0a1,1,0,0,1,.11-.81h0a3,3,0,0,0,.41-1.11h0a10.1,10.1,0,0,0,.06-1.12h0a9,9,0,0,1,.05-1h0a3.12,3.12,0,0,1,.29-.88h0a1.05,1.05,0,0,0,0-.7h0l-.58-1.87h0a2,2,0,0,1-.12-1.53h0a3.07,3.07,0,0,0-.06-1.35h0c-.11-.42-.25-.87-.41-1.35h0v-.11h0a1.57,1.57,0,0,1-1-1.11h0a6.86,6.86,0,0,0-.52-1.46h0a1.88,1.88,0,0,0-.59-.94h0a4.47,4.47,0,0,1-.47-.7h0a3.09,3.09,0,0,0-1.28-2.11h0a2.45,2.45,0,0,1-1-.64h0a6.54,6.54,0,0,0-.81-.76h0a1.7,1.7,0,0,0-.83-.47h0a4.21,4.21,0,0,1-.93-.35h0a1,1,0,0,0-.24-.17h0a.78.78,0,0,1-.23-.3h0a2.8,2.8,0,0,0-1.06-1.28h0a12,12,0,0,0-1.4-.83h0a1.16,1.16,0,0,1-.58-.47h0a4.48,4.48,0,0,0-1.65-1h0l-.58-.36h0a1.89,1.89,0,0,0-.7-.88h0a3,3,0,0,1-.83-.76h0a1,1,0,0,0-.7-.34h0c-.63-.17-.94-.48-.94-1h0a3.1,3.1,0,0,0-1.18-1.53h0c-.3-.3-.59-.61-.87-.92h0a3.71,3.71,0,0,1-.64-1.06h0c-.07-.15-.16-.31-.24-.47h0a2.21,2.21,0,0,0-.34-.47h0a3.65,3.65,0,0,1-1.06-1.87h0a7.91,7.91,0,0,0-.36-1.22h0c-.15-.43-.3-.85-.45-1.24h0a1.83,1.83,0,0,1-.25-1.28h0a3.24,3.24,0,0,0-.23-1.64h0a1.71,1.71,0,0,1-.11-1.4h0a1.64,1.64,0,0,0,.05-.77h0a3.13,3.13,0,0,0-.18-.76h0a1.82,1.82,0,0,1,0-1.76h0a1.38,1.38,0,0,0,.13-.69h0a5.09,5.09,0,0,1,0-3.4h0a.93.93,0,0,0,.16-.7h0a5.62,5.62,0,0,1-.05-.7h0a5.92,5.92,0,0,1,.48-2.47h0c.15-.39.28-.8.4-1.22h0a5.11,5.11,0,0,0,.18-1.35h0a2.85,2.85,0,0,1,.16-1h0c.12-.27.26-.57.43-.88h0a8.79,8.79,0,0,1,2-3h0a4.51,4.51,0,0,0,.77-1h0c.19-.35.4-.71.63-1.1h0a10,10,0,0,1,2.82-2h0A8.27,8.27,0,0,0,241,27.46h0c.39-.23.74-.43,1.06-.59h0a1.92,1.92,0,0,1,1.17-.11h0a2.06,2.06,0,0,0,1.05-.36h0a1.5,1.5,0,0,1,1.65-.23h0a1.9,1.9,0,0,0,1.51.12h0a2.11,2.11,0,0,1,1.53.11h0a4.87,4.87,0,0,0,2,.36h0a1.29,1.29,0,0,1,1.24.18h0a10.27,10.27,0,0,1,1,.87h0a1.5,1.5,0,0,0,.59.53h0a2,2,0,0,1,.58.4h0c.39.16.59.28.59.36h0a7.53,7.53,0,0,1,.81.94h0a2.25,2.25,0,0,0,.95.7h0a.35.35,0,0,1,.11.23h0a4.58,4.58,0,0,0,.54,1h0a2.61,2.61,0,0,1,.4,1h0a.66.66,0,0,0,.23.45h0a2.21,2.21,0,0,1,.54,1.13h0c0,.34.05.71.05,1.1h0a3.68,3.68,0,0,0,.24,1.17h0a1.63,1.63,0,0,1,.12.7h0a1.71,1.71,0,0,0,.34,1.64h0a.77.77,0,0,1,0,.83h0a2,2,0,0,0-.12,1.51h0a2.86,2.86,0,0,1-.11,1.87h0l-.36,1.3h0a2.32,2.32,0,0,1-.75,1.34h0a3.69,3.69,0,0,1-1.35.65h0a20.09,20.09,0,0,1-2.45.29h0a7.8,7.8,0,0,1-2.48-.29h0a1.48,1.48,0,0,1-1.17-1.53h0a11.27,11.27,0,0,0-.23-2.39h0a8.3,8.3,0,0,1-.11-2.41h0a1.46,1.46,0,0,0-.11-.58h0a3.44,3.44,0,0,1-.43-.81h0a1.6,1.6,0,0,0-.4-.7h0a5.3,5.3,0,0,0-1.87-1.53h0a1.56,1.56,0,0,0-1-.12h0a1.92,1.92,0,0,1-1.12-.11h0a11.31,11.31,0,0,1-1.63.75h0a3.11,3.11,0,0,0-1.41,1h0l-1.29,1.87h0c-.23.39-.45.74-.65,1h0a6.3,6.3,0,0,0-.52,1h0a1.68,1.68,0,0,0-.23,1.42h0a1.29,1.29,0,0,1-.13.92h0a1.83,1.83,0,0,0-.11,1.65h0a2.8,2.8,0,0,1,0,1.64h0v.11h0a6.11,6.11,0,0,1,0,1.71h0a3.4,3.4,0,0,0,.24,1.69h0a.64.64,0,0,0,.05.23h0a.72.72,0,0,1,.07.36h0a4.77,4.77,0,0,0,.47,1.64h0c.23.46.46,1,.7,1.51h0a2.46,2.46,0,0,0,.93,1.17h0l.58.47h0a6.67,6.67,0,0,0,1.24,1.71h0c.51.5,1,1,1.46,1.46h0a2.82,2.82,0,0,0,.7.46h0a2.71,2.71,0,0,1,.7.47h0A9.76,9.76,0,0,0,250,63.75h0c.15,0,.3.12.45.35h0a5.94,5.94,0,0,0,1.3,1.17h0a8.5,8.5,0,0,0,1.52.82h0q.94.47,1,1h0l.23.48h0a2.7,2.7,0,0,1,.77.81h0a1.83,1.83,0,0,0,.76.7h0a5.72,5.72,0,0,1,1.17,1.3h0c.32.46.67,1,1.06,1.51h0a2.67,2.67,0,0,1,.41.59h0a1.52,1.52,0,0,0,.52.58h0a1.69,1.69,0,0,1,.58.83h0c.32.78.63,1.54.95,2.28h0a18.23,18.23,0,0,1,.81,2.4h0l.94,3.86h0l.12.11h0a3.57,3.57,0,0,0,.06,1.89h0a3.3,3.3,0,0,1,0,1.87ZM310.22,31.8h0a2.13,2.13,0,0,0,.07.52h0a2.59,2.59,0,0,1,.06.52h0a3.32,3.32,0,0,1-1.64,3.4h0a.82.82,0,0,1-.59.24h0a1.36,1.36,0,0,0-.58.11h0a3.1,3.1,0,0,1-1.18.23h-1.17a6.39,6.39,0,0,0-1.46,0h0c-.51,0-1,0-1.47,0h0a1.25,1.25,0,0,0-1.05.47h0a4.44,4.44,0,0,1-1.17.82h0A2.21,2.21,0,0,0,299,39.63h0q-.12.94-.18,1.83h0c0,.58-.05,1.18-.05,1.8h0a.57.57,0,0,0,0,.7h0a1.53,1.53,0,0,1,0,1.41h0a1.4,1.4,0,0,0,.11.93h0a2,2,0,0,1,0,1.89h0a.94.94,0,0,0-.11,1h0a7.37,7.37,0,0,1,0,1.88h0l-.36,2.34h0a2.68,2.68,0,0,0-.18,1.18h0q.07.59.18,1.17h0a7.73,7.73,0,0,0,.07,1.1h0c0,.35.05.72.05,1.11h0a3.19,3.19,0,0,0,.24,1.41h0a1.74,1.74,0,0,1,.18.93h0a7.78,7.78,0,0,1-.18.94h0v.81h0a3,3,0,0,1-.11,1.76h0a1.74,1.74,0,0,0,.11,1.64h0a.83.83,0,0,1-.11.7h0a7.89,7.89,0,0,0-.18,1.17h0a2.19,2.19,0,0,0,.18,1.17h0v.25h0a2.53,2.53,0,0,0-.13,1.35h0c.08.42.16.86.24,1.33h0a1.51,1.51,0,0,1-.11,1.3h0c-.17.39-.21.66-.13.81h0a3.91,3.91,0,0,1,.06,1.24h0a3.81,3.81,0,0,0,.07,1.22h0a3.29,3.29,0,0,1,0,1.17h0a5.18,5.18,0,0,0-.13,1.17h0a.52.52,0,0,1-.05.29h0a.21.21,0,0,0-.07.18h0a1,1,0,0,1,.25.88h0a2.75,2.75,0,0,0-.13.88h0a2.59,2.59,0,0,1-.05.47h0a.6.6,0,0,0,.05.47h0a4.3,4.3,0,0,1,0,2.8h0a.53.53,0,0,0-.12.58h0a2.85,2.85,0,0,1,0,2h0a2.23,2.23,0,0,0,0,1.4h0a4,4,0,0,1,.3,1h0a7.31,7.31,0,0,1,.06,1h0l-.24,1.4h0a9,9,0,0,0-.12,1.53h0v3.38h0a4.88,4.88,0,0,0,.47,2.22h0a1.24,1.24,0,0,1-.11,1.53h0a1.83,1.83,0,0,0-.24.7h0c0,.47,0,1-.05,1.47h0a3.29,3.29,0,0,0,.18,1.46h0a2.07,2.07,0,0,1-.13,1.53h0a2.39,2.39,0,0,0-.17,1.17h0a4.19,4.19,0,0,1-.06,1.17h0v1.51h0a1.22,1.22,0,0,1-.94,1.17h0a1.3,1.3,0,0,1-.59.11h0a.83.83,0,0,0-.59.25h0a1.51,1.51,0,0,1-1.4,0h0a1.41,1.41,0,0,0-1.05-.25h0a4.17,4.17,0,0,1-1.29.07h0a5.5,5.5,0,0,0-1.4.06h0a1.5,1.5,0,0,1-1.53-.35h0a3.13,3.13,0,0,1-.81-1.53h0l-.36-2h0a4,4,0,0,1-.11-.87h0a1.51,1.51,0,0,1,.34-.88h0c.09-.08.13-.27.13-.59h0a2.76,2.76,0,0,1-.13-1.39h0a4.37,4.37,0,0,0,0-1.53h0a4.24,4.24,0,0,1,.07-.77h0a1,1,0,0,0-.18-.76h0a1.57,1.57,0,0,1-.12-.7h0a12.08,12.08,0,0,0,.23-2.28h0V94.88h0a5.87,5.87,0,0,1-.05-1.46h0a7.18,7.18,0,0,0-.06-1.47h0a5.76,5.76,0,0,1,0-2.34h0a8,8,0,0,0,.11-2.45h0v-.81h0a4.94,4.94,0,0,1-.11-1.76h0a2.28,2.28,0,0,0,.11-.83h0a4.38,4.38,0,0,1-.23-1.33h0a4.35,4.35,0,0,1,.23-1.35h0a.94.94,0,0,0,0-.7h0a1.58,1.58,0,0,1,0-1.17h0a3.28,3.28,0,0,0,.18-1.35h0a5.28,5.28,0,0,0-.29-1.35h0a1,1,0,0,1,0-.94h0a1.61,1.61,0,0,0,.29-1h0c0-.32-.05-.67-.05-1.06h0a10.91,10.91,0,0,0-.36-2.7h0v-.59h0a4.8,4.8,0,0,0,.36-1.75h0V66.67h0a21.93,21.93,0,0,0,.05-2.81h0a26.23,26.23,0,0,1,.06-2.8h0a15.72,15.72,0,0,0-.17-2.29h0a6.27,6.27,0,0,1,.06-2.28h0a1.86,1.86,0,0,0-.24-.82h0a1.29,1.29,0,0,1,0-1.29h0a2,2,0,0,0,.35-1.28h0l-.35-4v-.92h0a5.77,5.77,0,0,0,.11-2.59h0V44.32h0a9.24,9.24,0,0,0,.18-2.34h0c0-.78-.09-1.56-.18-2.35h0a2.7,2.7,0,0,0-1-2.22h0a3.7,3.7,0,0,0-2.34-1.17h0l-1.42-.34h0a3.18,3.18,0,0,0-.88-.13h0A2,2,0,0,0,282,36h0a1.85,1.85,0,0,1-1.28,0h0a6.81,6.81,0,0,0-1.4-.47h0a2,2,0,0,1-1.3-1.76h0a8,8,0,0,0-.05-.88h0a5.9,5.9,0,0,1-.07-.87h0a3.2,3.2,0,0,0,0-.59h0a1.49,1.49,0,0,1-.07-.47h0a2.87,2.87,0,0,1,.7-2.57h0c0-.16,0-.24.11-.24h0a6,6,0,0,0,1.35-.64h0a1.78,1.78,0,0,1,1.47-.18h0a4.46,4.46,0,0,0,1.71.12h0c.5-.08,1.06-.19,1.69-.34h0a1.64,1.64,0,0,1,1.4.11h0a3.85,3.85,0,0,0,1.88,0h0l1.4-.24h0a2.35,2.35,0,0,1,1.4.24h0a3.34,3.34,0,0,0,2.12,0h0a4.15,4.15,0,0,1,1.17-.11h0a6.62,6.62,0,0,0,1.17.11h0a3.25,3.25,0,0,1,1.17.23h0a.87.87,0,0,0,.82.06h0a3.82,3.82,0,0,1,.83-.29h0a2.69,2.69,0,0,1,.47.05h0a1.74,1.74,0,0,0,.45.06h0a4.7,4.7,0,0,1,1.24.18h0a1.88,1.88,0,0,0,1.24-.06h0a5.85,5.85,0,0,1,1.57-.23h0a7.33,7.33,0,0,1,1.7.23h0a2.61,2.61,0,0,0,1.75.11h0a2.45,2.45,0,0,1,1.17.07h0c.39.12.78.21,1.17.29h0c.32,0,.55.19.7.58h0a2.59,2.59,0,0,1,.36.7h0a1.88,1.88,0,0,1,0,.95h0a3.88,3.88,0,0,0,.07.81h0a7,7,0,0,0,.16.83Zm28.7,6h0a2.74,2.74,0,0,0-2,2.34h0c-.07.39-.17.81-.29,1.28h0a5.6,5.6,0,0,0-.18,1.4h0a3.41,3.41,0,0,0,.11.94h0a2,2,0,0,1,0,1.64h0a4.88,4.88,0,0,0,.14,1.76h0a6.82,6.82,0,0,1,.11,1.4h0a6.43,6.43,0,0,0-.11,1.28h0v1.42h0a5.69,5.69,0,0,0,.22,1.87h0a1.25,1.25,0,0,1,.12.87h0a3.65,3.65,0,0,0-.12,1h0a6.52,6.52,0,0,0-.11,2.11h0c.07.7.11,1.4.11,2.1h0a1.72,1.72,0,0,0-.06.71h0a1,1,0,0,1-.05.59h0a1.37,1.37,0,0,0-.07,1h0a2,2,0,0,1,.07,1.06h0a5.21,5.21,0,0,0,.05.69h0a1,1,0,0,1-.16.72h0a1.64,1.64,0,0,0,.11,1.4h0a4.15,4.15,0,0,1,.23,1.64h0a3.81,3.81,0,0,0-.05,1.22h0c0,.43.05.85.05,1.24h0a2.54,2.54,0,0,0,1.64,2.56h0a4.37,4.37,0,0,1,.65.3h0l.52.29h0a3.06,3.06,0,0,0,1.17.24h0a5.79,5.79,0,0,0,1.17-.11h0a.72.72,0,0,0,.36-.07h0c.08,0,.19,0,.34.07h0a4.45,4.45,0,0,0,1.35.23h0a4.35,4.35,0,0,0,1.35-.23h0a1.85,1.85,0,0,1,2.23.81h0a5.23,5.23,0,0,1,.34.88h0a1.56,1.56,0,0,1-.11,1h0a.3.3,0,0,0,0,.47h0a2.19,2.19,0,0,1,.18,1h0q-.06.4-.18,1h0a5.87,5.87,0,0,0-.18,1.7h0a8.26,8.26,0,0,1-.05,1.7h0a1.36,1.36,0,0,1-.24.94h0a2.35,2.35,0,0,1-.88,1.1h0a2.3,2.3,0,0,1-1.35,0h0a4.14,4.14,0,0,0-1.87-.25h0c-.39,0-.78,0-1.17,0h0a2.39,2.39,0,0,0-1.17.17h0a3.81,3.81,0,0,1-1.11.29h0a4.52,4.52,0,0,0-1.12.29h0a4,4,0,0,0-2.46,3.17h0a1.07,1.07,0,0,0,.07.41h0a1.64,1.64,0,0,1,0,.4h0a5.5,5.5,0,0,1,.07,1.47h0a5.43,5.43,0,0,0,.07,1.46h0a.92.92,0,0,1-.14.47h0l-.22.94h0a1.72,1.72,0,0,0,.11,1h0a1.15,1.15,0,0,1-.11.47h0a2,2,0,0,0,.22,1.64h0a1.14,1.14,0,0,1,0,1.06h0a2.33,2.33,0,0,0,.14,1.64h0a.7.7,0,0,1,.22.52h0a.73.73,0,0,0,.23.52h0a1.7,1.7,0,0,0,.65.83h0a9.39,9.39,0,0,0,1,.47h0a1.69,1.69,0,0,0,.95-.24h0a1.08,1.08,0,0,1,1.17,0h0a1.62,1.62,0,0,0,1.17.35h0a1.9,1.9,0,0,1,.81.12h0a2,2,0,0,0,.83-.12h0a1,1,0,0,1,1-.11h0a4.91,4.91,0,0,0,1.47.23h0a8.57,8.57,0,0,1,1.46.11h0a3.56,3.56,0,0,1,1.13.18h0a7.07,7.07,0,0,0,1.1.29h0c.24,0,.36.08.36.23h0c.15.24.31.48.47.71h0a1.46,1.46,0,0,1,.23.82h0q.11.59.18,1.35h0a4,4,0,0,1-.18,1.46h0a3.5,3.5,0,0,0,0,1.76h0a3.17,3.17,0,0,1-.94,2.81h0a1.83,1.83,0,0,1-1.29.34h0a5.18,5.18,0,0,1-.59,0h0a.64.64,0,0,0-.58.16h0a.61.61,0,0,1-.47.13h0a2.31,2.31,0,0,0-.46,0h0a1.58,1.58,0,0,1-.47.07h0a3.63,3.63,0,0,0-1.58.11h0a1.66,1.66,0,0,1-1.46-.23h0a1.79,1.79,0,0,0-1.42-.13h0l-1.87.25h0a.82.82,0,0,1-.58,0h0a5.24,5.24,0,0,0-2.23,0h0a1.33,1.33,0,0,1-.93.11h0a4.38,4.38,0,0,0-.94-.11h0a1.46,1.46,0,0,0-.7.18h0a1.28,1.28,0,0,1-.83,0h0a6.9,6.9,0,0,1-.75,0h0a1,1,0,0,0-.77.16h0a1.32,1.32,0,0,1-1.41-.11h0a1.34,1.34,0,0,0-.75-.41h0a3.86,3.86,0,0,1-.76-.18h0a2.88,2.88,0,0,1-2-2.1h0c-.07-.55-.15-1.06-.22-1.53h0a14.22,14.22,0,0,0-.36-1.52h0v-.34h0a4.74,4.74,0,0,0,0-2.12h0a9.49,9.49,0,0,1-.23-2h0a3.2,3.2,0,0,0-.06-.65h0a.75.75,0,0,1,.06-.52h0c.08-.24.08-.4,0-.47h0a2.47,2.47,0,0,1-.29-1.4h0q.06-.72.18-1.53h0a5.2,5.2,0,0,0,.11-1.28h0V93.6h0a12.08,12.08,0,0,1,.11-1.52h0V91.5h0a1.52,1.52,0,0,1,0-1.17h0a1.71,1.71,0,0,0,.12-1.12h0a8.13,8.13,0,0,0-.34-1.11h0A2.78,2.78,0,0,1,326,87h0a2.13,2.13,0,0,1,.36-1.11h0a3.33,3.33,0,0,0,.23-1.39h0l-.34-2h0a1.28,1.28,0,0,1,.05-.41h0a1.31,1.31,0,0,0,.06-.41h0a2.84,2.84,0,0,0,.18-1.23h0a2.53,2.53,0,0,1,.18-1.22h0l-.13-.13h0c-.39-.39-.54-.74-.46-1h0A9.1,9.1,0,0,1,326.5,77h0a4.06,4.06,0,0,0,.12-1.17h0a13.69,13.69,0,0,1-.12-1.71h0V72.41h0v-.7h0a1.73,1.73,0,0,1-.11-1.41h0c0-.39,0-.8-.06-1.22h0a11.59,11.59,0,0,0-.17-1.24h0a1.87,1.87,0,0,1,.23-1.64h0a1.4,1.4,0,0,0,.11-.93h0v-.82h0a5.15,5.15,0,0,0,.18-1.81h0a11.25,11.25,0,0,0-.29-1.82h0a1.65,1.65,0,0,1-.06-1.11h0a1.61,1.61,0,0,0-.05-1.12h0c0-.23,0-.38.11-.45h0a3,3,0,0,0,.23-2.12h0v-.35h0a4.67,4.67,0,0,0,.13-1.76h0c-.09-.54-.17-1.08-.25-1.63h0a4.51,4.51,0,0,1,.07-2.17h0a5.44,5.44,0,0,0,.18-2h0a10.33,10.33,0,0,0-.07-1.22h0a4.75,4.75,0,0,1,.07-1.35h0v-.23h0a2.61,2.61,0,0,1-.25-1.46h0a9,9,0,0,1,.36-1.35h0a.56.56,0,0,1,.05-.3h0s0-.14-.05-.29h0a3.51,3.51,0,0,1-.06-1h0a1.42,1.42,0,0,0-.41-1.06h0a1.07,1.07,0,0,1-.11-.81h0a8.31,8.31,0,0,0,.47-1.42h0a7.91,7.91,0,0,0,.23-1.87h0V33.78h0a3.64,3.64,0,0,1,.11-1.06h0a8.68,8.68,0,0,1,.76-2h0A5.48,5.48,0,0,1,329.21,29h0a6.39,6.39,0,0,1,1.69-1.29h0a3.86,3.86,0,0,1,2.16-.36h0A1.28,1.28,0,0,0,334,27h0a2.34,2.34,0,0,1,1.76-.23h0a.54.54,0,0,0,.59.11h0a5,5,0,0,1,1.75.12h0a1.42,1.42,0,0,0,.82,0h0a2.59,2.59,0,0,1,.83-.12h0l2.57-.34h.11a1.6,1.6,0,0,0,.95.16h0a1.78,1.78,0,0,1,.94.18h0a2.85,2.85,0,0,0,1.87-.11h0a1,1,0,0,1,1.17,0h0a1.31,1.31,0,0,0,1.17.36h0a1.73,1.73,0,0,1,2.23,1.17h0a4,4,0,0,1,.23.92h0a1.72,1.72,0,0,0,.11.7h0a6.26,6.26,0,0,1,.12,1.42h0a3.83,3.83,0,0,1,0,1.35h0a3.13,3.13,0,0,0,0,1.22h0a1.75,1.75,0,0,1-.12.65h0c-.07.19-.15.4-.23.63h0a1.84,1.84,0,0,1-2.11,1.41h0a4.8,4.8,0,0,0-2.1.59h0a4.75,4.75,0,0,1-.94.11h0a1.9,1.9,0,0,1-.82-.22h0a2.06,2.06,0,0,0-1.3-.25h0a2.29,2.29,0,0,1-.92.12h0a.64.64,0,0,0-.48.13h0a1,1,0,0,1-.81.45h0a3,3,0,0,1-.83-.11h0a1.84,1.84,0,0,0-1.06.11h0a.76.76,0,0,1-.58.25Zm63.25,19.65h0a3.06,3.06,0,0,1,.24,1.17h0v1.17h0V60h0a1.71,1.71,0,0,0-.29,1.1h0c0,.36.05.73.05,1.12h0V63h0a1.07,1.07,0,0,1-.34.77h0l-.12.11h0a1.69,1.69,0,0,1-.06,1h0a2.13,2.13,0,0,0-.18.88h0a2.88,2.88,0,0,1-.11.81h0a.77.77,0,0,0,.11.7h0c0,.07-.08.19-.23.36h0A1.23,1.23,0,0,0,401,68.9h0a1,1,0,0,1,0,.94h0a8.45,8.45,0,0,0-.46,1.81h0a6.83,6.83,0,0,1-.47,1.7h0a4.06,4.06,0,0,0-.47,1.05h0l-.47,1.41h0a.93.93,0,0,1-.12.59h0l-.47.69h0a3,3,0,0,1-.47.59h0a.93.93,0,0,0-.41.65h0a1.61,1.61,0,0,1-.29.75h0a1.84,1.84,0,0,1-.81,1.17h0c-.32.16-.48.36-.48.58h0v.25h0a6,6,0,0,1-.52.88h0a3.64,3.64,0,0,1-.76.76h0l-.36.34h0a6,6,0,0,1-.58,1.12h0a1.64,1.64,0,0,0-.23,1.22h0a1.66,1.66,0,0,1,0,.83h0a1.39,1.39,0,0,0,0,.81h0a2.2,2.2,0,0,0,.23,1.18h0a.24.24,0,0,0,.06.17h0a.3.3,0,0,1,.05.18h0a2.15,2.15,0,0,0,.24,1.63h0a6.88,6.88,0,0,0,.59,1.53h0V92h0a4.16,4.16,0,0,0,.11,1.71h0a5.25,5.25,0,0,1,.23,1.58h0a5,5,0,0,0,.25.58h0a4.7,4.7,0,0,1,.22.59h0l.36,1.17h0a2.38,2.38,0,0,0,.11.7h0c.08.24.16.47.23.7h0v.13h0a1.87,1.87,0,0,0,0,1.28h0c.17.39.32.78.47,1.17h0v.23h0a1.92,1.92,0,0,0,.25,1.53h0a5.43,5.43,0,0,1,.7,2.81h0c0,.23,0,.34.11.34h0a1.23,1.23,0,0,1,.29.47h0c.05.16.11.31.18.48h0v1.39h0a.34.34,0,0,0,.05.41h0a.35.35,0,0,1,.07.42h0a2.72,2.72,0,0,1-.7.82h0a3,3,0,0,1-.83.35h0l-.82.23h0a2.7,2.7,0,0,0-.65.07h0a.83.83,0,0,1-.52-.07h0a2.32,2.32,0,0,1-1.05,0h0a2.7,2.7,0,0,0-1.06,0h-1.11a2.89,2.89,0,0,1-1.1-.23h0a1.19,1.19,0,0,1-1.06-.82h0c-.16-.39-.32-.79-.47-1.18h0a1.58,1.58,0,0,1,0-1.17h0a1.53,1.53,0,0,0-.12-.92h0l-.58-1.64h0a1.12,1.12,0,0,1-.12-1.29h0a3.73,3.73,0,0,0-.24-2.58h0a3.36,3.36,0,0,1-.23-1.65h0a5.5,5.5,0,0,0-.7-2.68h0a2.31,2.31,0,0,1-.47-1.17h0a2.67,2.67,0,0,0-.11-1.35h0c-.17-.43-.32-.88-.48-1.35h0a5.27,5.27,0,0,0-1.41-2.34h0a1.34,1.34,0,0,0-1.4-.47h0a3.18,3.18,0,0,1-.88.13h0a2,2,0,0,0-.88.23h0a2.36,2.36,0,0,0-1.17.87h0a2.33,2.33,0,0,0-.47,1.35h0c0,.55,0,1.07-.05,1.58h0a6.3,6.3,0,0,1-.29,1.46h0v.48h0a4.5,4.5,0,0,1-.25,2.81h0a3.08,3.08,0,0,0,.12,1.87h0a.46.46,0,0,0,.06.29h0c.05,0,0,.13-.06.29h0a2.29,2.29,0,0,0-.12,1.17h0a1.83,1.83,0,0,1,0,.93h0a4.31,4.31,0,0,0-.11.94h0a5.13,5.13,0,0,0,.11,1.29h0a2,2,0,0,1-.22.83h0a.62.62,0,0,0-.12.81h0a1.09,1.09,0,0,1,.17.76h0a6.22,6.22,0,0,0-.05.88h0a1.7,1.7,0,0,1-.59,1h0a1,1,0,0,1-.94.3h0a2,2,0,0,0-1.06.22h-.34c-.24-.22-.55-.22-.95,0h0c-.15.17-.34.17-.58,0h0a1,1,0,0,0-.7-.16h0a5.62,5.62,0,0,1-.7,0h0a10.73,10.73,0,0,0-1.76.11h0a1.26,1.26,0,0,1-1.28-.92h0a5.94,5.94,0,0,1-.25-1.64h0a6,6,0,0,1,.25-1.65h0a4.38,4.38,0,0,0-.07-.76h0A5.14,5.14,0,0,1,370,105h0v-.36h0a.78.78,0,0,0,.29-.7h0a2,2,0,0,0-.16-.58h0a1.48,1.48,0,0,1-.13-.7h0a.83.83,0,0,0,.13-.72h0c-.09-.22-.17-.46-.25-.69h0v-.48h0V99.56h0a5.81,5.81,0,0,1,.12-1.17h0a1.39,1.39,0,0,0,0-.81h0c-.08-.24-.15-.47-.23-.7h0a6.9,6.9,0,0,1,.07-1.06h0a2.74,2.74,0,0,0-.07-.94h0a1.64,1.64,0,0,1,0-.88h0c.08-.27.15-.6.23-1h0a2.38,2.38,0,0,0-.12-.93h0a6,6,0,0,1,.25-2.34h0v-.35h0a6,6,0,0,0,.05-1.4h0c0-.48-.05-.95-.05-1.42h0a12,12,0,0,0-.07-1.35h0a11.54,11.54,0,0,0-.18-1.22h0a6.53,6.53,0,0,1,.25-1.41h0a1.49,1.49,0,0,0,.16-.88h0a7.89,7.89,0,0,1-.05-.88h0V78.49h0a12.53,12.53,0,0,1-.36-1.57h0a3.89,3.89,0,0,1,.12-1.58h0a5.49,5.49,0,0,0,.13-1.94h0c-.09-.66-.17-1.3-.25-1.93h0a.44.44,0,0,0-.11-.34h0a.82.82,0,0,1,0-.83h0a1.58,1.58,0,0,0-.11-1.76h0c-.32-.39-.32-1,0-1.75h0a3.39,3.39,0,0,0,.34-2.34h0a5.53,5.53,0,0,1,0-2.22h0a4.68,4.68,0,0,0,.13-2.69h0A3.58,3.58,0,0,1,370,58h0a1.44,1.44,0,0,0,.06-.75h0a6.29,6.29,0,0,1-.06-.88h0V55.21h0a5.18,5.18,0,0,1,.13-1.17h0a7.37,7.37,0,0,0,0-3.17h0c-.09-.08-.13-.27-.13-.59h0v-.34h0a1.56,1.56,0,0,1-.12-1.75h0a6.26,6.26,0,0,0,.12-1.42h0c0-.39,0-.79.06-1.22h0a11.72,11.72,0,0,0,.07-1.35h0a1.58,1.58,0,0,0-.13-.7h0a1,1,0,0,1-.12-1h0a2.59,2.59,0,0,1,.12-.83h0a1.39,1.39,0,0,0,0-.81h0a6.12,6.12,0,0,1,.24-1.4h0a1.16,1.16,0,0,0-.11-.83h0a.48.48,0,0,1-.18-.47h0a2.49,2.49,0,0,0,0-.46h0a6,6,0,0,0,.18-1.88h0a10.63,10.63,0,0,1,.06-1.87h0V32.32h0a4.7,4.7,0,0,1,.23-1.46h0a2,2,0,0,0,.11-.82h0l.36-.71h0a2.12,2.12,0,0,1,.59-.75h0a5.29,5.29,0,0,0,.58-.54h0a7.88,7.88,0,0,1,1.11-.76h0a1.47,1.47,0,0,1,1.24-.05h0a.72.72,0,0,0,.58,0h0a1.06,1.06,0,0,1,1.17-.24h.36a1.89,1.89,0,0,1,1.11-.12h0a1.86,1.86,0,0,0,1.1-.11h0c.17-.15.4-.15.72,0h0a1.47,1.47,0,0,0,.93.36h0a5.36,5.36,0,0,0,1.05-.13h0c.39-.08.76-.13,1.11-.17h0a2.25,2.25,0,0,1,1.12.17h0a4,4,0,0,0,.77.42h0a1.07,1.07,0,0,0,.74.05h0a1.77,1.77,0,0,1,.77-.05h0l.76.16h0a1.69,1.69,0,0,1,.88.24h0c.27.16.57.31.88.48h0a1.48,1.48,0,0,0,.59.34h0a1.2,1.2,0,0,1,.58.36h0l2.57,1.28h0c.17,0,.32.12.47.36h0a4.18,4.18,0,0,0,2.12,1.87h0a1,1,0,0,1,.7.63h0a4,4,0,0,0,.36.88h0l.22.47h0a9.77,9.77,0,0,0,.53.94h0a2.38,2.38,0,0,0,.87.82h0a2.93,2.93,0,0,1,.59,1.41h0a1.78,1.78,0,0,0,.24.7h0l1.06,1.4h0a1.39,1.39,0,0,1,.46.94h0a4,4,0,0,0,.18,1.17h0c.11.39.21.78.29,1.17h0c.07.15.16.23.24.23h0c.08,0,.15.08.23.24h0a1,1,0,0,1,.18.7h0a3.71,3.71,0,0,0-.07.59h0A2,2,0,0,0,401,46.3h0c.08.16.17.3.24.42h0a.38.38,0,0,1,0,.41h0a2.43,2.43,0,0,0,.18,1h0a5.65,5.65,0,0,1,.29,1h0a3.94,3.94,0,0,1,.12,2.12h0a2.16,2.16,0,0,0,.11,1.17h0a10.31,10.31,0,0,1,.23,1.75h0a4.23,4.23,0,0,0,.06.7h0a3.39,3.39,0,0,1,.07.7h0a1.42,1.42,0,0,1-.13,1.29h0a.43.43,0,0,0,0,.58Zm-9.49-2.1h0c.17-.46.21-.78.12-.94h0a2.46,2.46,0,0,1-.23-1.87h0v-.36h0c-.15-.78-.31-1.54-.47-2.27h0c-.15-.74-.31-1.5-.47-2.28h0a6.19,6.19,0,0,0-.82-2.11h0a.8.8,0,0,1-.22-.59h0a.71.71,0,0,0-.25-.47h0a4.68,4.68,0,0,1-.52-.88h0a5,5,0,0,0-.41-.76h0a7.06,7.06,0,0,1-.35-1h0a2.68,2.68,0,0,0-.47-.94h0a6.62,6.62,0,0,0-.82-1.11h0c-.31-.36-.63-.69-.94-1h0L386,38h0a1.32,1.32,0,0,0-.69-.81h0c-.48-.16-.95-.34-1.42-.54h0a3.7,3.7,0,0,0-1.4-.29h0a2,2,0,0,0-1.87.94h0a2.45,2.45,0,0,1-.59.82h0a.24.24,0,0,1-.06.18h0a.24.24,0,0,0-.07.17h0a6.16,6.16,0,0,0-.11,1.06h0a2.09,2.09,0,0,1-.23.93h0v.24h0a2.45,2.45,0,0,1-.24,1.87h0a1.12,1.12,0,0,0-.29.65h0a1.52,1.52,0,0,0,.17.88h0a1.9,1.9,0,0,1,.12.81h0v3.4h0a.68.68,0,0,1-.12.47h0a9.33,9.33,0,0,1,0,1h0a2.9,2.9,0,0,0,0,1h0a11.36,11.36,0,0,1,.18,1.23h0a2.32,2.32,0,0,1-.18,1.22h0a3.26,3.26,0,0,0,0,1.17h0v.25h0a1,1,0,0,0-.17.74h0a5.52,5.52,0,0,1,.06.77h0c.08.63.15,1.27.23,1.93h0a7.81,7.81,0,0,1,0,2h0a7.49,7.49,0,0,0-.05,1.64h0a5.13,5.13,0,0,1-.18,1.64h0a1.79,1.79,0,0,0,.11.7h0c.08.08.12.31.12.7h0v3.4h0a7.37,7.37,0,0,1-.12,1.35h0a2.1,2.1,0,0,0,.25,1.33h0v.25h0a2.84,2.84,0,0,0-.25,1.05h0v1h0a4.39,4.39,0,0,0,.07.72h0a5.36,5.36,0,0,1,.05.7h0a2,2,0,0,0,.06,1.1h0a3.56,3.56,0,0,1,.18,1.13h0a1.33,1.33,0,0,0,.7,1.28h0a.81.81,0,0,0,.59.23h0a1.36,1.36,0,0,1,.58.11h0a1.19,1.19,0,0,0,.95-.11h0a2.38,2.38,0,0,1,.81-.34h0a2.92,2.92,0,0,0,1.29-.59h0c.16-.16.28-.24.35-.24h0a1.11,1.11,0,0,0,.88-.34h0c.2-.24.37-.44.52-.59h0a1.81,1.81,0,0,1,1.17-1.06h0a2.72,2.72,0,0,0,1.18-1.17h0a5.71,5.71,0,0,0,.47-.83h0a3.08,3.08,0,0,1,.58-.81h0a.68.68,0,0,0,.23-.47h0a2.13,2.13,0,0,1,.07-.52h0a2.62,2.62,0,0,0,.06-.54h0a2.5,2.5,0,0,1,.59-1h0l.45-.58h0a18.07,18.07,0,0,0,.83-2.7h0a3,3,0,0,0,.23-1.64h0v-.34h0a5.7,5.7,0,0,1,.18-1.42h0c.12-.47.21-.93.29-1.4h0a8.11,8.11,0,0,1,.07-1.12h0c0-.35,0-.71,0-1.1h0a8,8,0,0,0,0-.88h0a2.21,2.21,0,0,1,0-.88h0a4.58,4.58,0,0,0,.07-1.24h0c0-.42-.07-.83-.07-1.22Zm51.66-27.16.71,2h0v.47h0a5.07,5.07,0,0,0-.06,2.05h0a4.87,4.87,0,0,1-.07,2h0a4.14,4.14,0,0,0-.16.75h0a1.12,1.12,0,0,1-.29.65h0c-.17.63-.48.83-1,.59h0a2.52,2.52,0,0,1-1.4.29h0q-.71-.06-1.41-.06h0a7.6,7.6,0,0,1-.77,0h0a.9.9,0,0,0-.74.18h-.36a1.38,1.38,0,0,0-1.17-.18h0c-.39.12-.78.25-1.17.4h0a.76.76,0,0,1-.82,0h0a3,3,0,0,0-2,0h0a.82.82,0,0,1-.63.23h0a.81.81,0,0,0-.65.25h0c-.39.15-.67.11-.82-.12h0a1.35,1.35,0,0,0-1.3.23h0a5.57,5.57,0,0,0-1.17,1.4h0a2.57,2.57,0,0,0-.34,1.53h0a12.94,12.94,0,0,1-.07,1.39h0a11.25,11.25,0,0,1-.18,1.42h0a.48.48,0,0,0,0,.4h0a1.73,1.73,0,0,1,0,.41h0a7.11,7.11,0,0,0,0,2.52h0a6.29,6.29,0,0,1,0,2.52h0v.81h0a3.77,3.77,0,0,1,0,1.42h0a6.65,6.65,0,0,0,.25,3.51h0a1.44,1.44,0,0,1-.12,1.28h0a2.9,2.9,0,0,0-.24,1.06h0a6,6,0,0,0,.11,1h0a1.27,1.27,0,0,0,.07.42h0a.5.5,0,0,1-.07.41h0a6.43,6.43,0,0,0,0,1.64h0v.7h0a2.5,2.5,0,0,0-.16,1.17h0a4.6,4.6,0,0,1-.06,1.17h0a1.1,1.1,0,0,0,0,1h0a2,2,0,0,1,.22,1h0a7.88,7.88,0,0,1,.18,1.12h0a2,2,0,0,1-.18,1.1h0a.66.66,0,0,0,0,.7h0a1.71,1.71,0,0,1,.17.7h0a6.13,6.13,0,0,0,.75,1.89h0a7.59,7.59,0,0,0,1.35,1.51h0a3.24,3.24,0,0,0,1.76.7h0l1.64.24h0a9.2,9.2,0,0,1,2.05.23h0a16.86,16.86,0,0,0,2.05.36h0a.49.49,0,0,0,.47,0h0a.4.4,0,0,1,.48.11h0a5.5,5.5,0,0,0,.52.7h0a1.49,1.49,0,0,1,.29,1h0a5.08,5.08,0,0,1,.06,1.34h0a2.65,2.65,0,0,0,.17,1.22h0a1.28,1.28,0,0,1-.12,1h0l-.22,1.51h0q-.12.58-.3,1.23h0a3.3,3.3,0,0,1-.65,1.24h0a1.25,1.25,0,0,1-1.17.59h0a18.47,18.47,0,0,0-2.1.11h0l-2.11.23h-1.06a6.16,6.16,0,0,0-1.06.11h0A2.93,2.93,0,0,0,429,86.82h0a5,5,0,0,0-.48,2.34h0a1.81,1.81,0,0,1,0,1h0a1.87,1.87,0,0,0-.07,1.06h0a4.19,4.19,0,0,1,.07,1.17h0a3.83,3.83,0,0,0,0,1.17h0a2.71,2.71,0,0,1,.07,1h0a8.1,8.1,0,0,1-.18.88h0A8,8,0,0,0,428.3,97h0a5.48,5.48,0,0,1,.11,1.94h0c-.08.66-.15,1.31-.23,1.93h0a2.24,2.24,0,0,0,.23,1.17h0a.66.66,0,0,1,.11.46h0a2.7,2.7,0,0,0,0,1.06h0a1.58,1.58,0,0,1-.11,1h0a4.73,4.73,0,0,0,0,2.93h0a2.56,2.56,0,0,1,.11.81h0a1,1,0,0,1-.45.83h0a.42.42,0,0,0-.13.34h0a1,1,0,0,1-.52.77h0a4.9,4.9,0,0,1-1,.29h-.7q-.59,0-.72.24h0a.89.89,0,0,1-1,.23h0c-.63-.15-1.41-.31-2.34-.47h0c-.17,0-.26,0-.3.07h0a.3.3,0,0,1-.18,0h0c-.7.48-1.25.41-1.64-.22h0l-.7-1.06h0a1.29,1.29,0,0,1-.36-1.17h0a22.35,22.35,0,0,0,.12-2.28h0a7.12,7.12,0,0,0-.34-2.16h0v-.47h0a11.4,11.4,0,0,0,.22-5.63h0c-.07-.15-.09-.25,0-.29h0s0-.13,0-.29h0a1.3,1.3,0,0,1,.07-.41h0a.55.55,0,0,0-.07-.4h0a1.93,1.93,0,0,1-.34-1.42h0a10.55,10.55,0,0,1,.34-1.4h0a1.19,1.19,0,0,0,.12-1.17h0a10.94,10.94,0,0,1,0-3.87h0a2.2,2.2,0,0,0,.06-.92h0c0-.32-.1-.67-.18-1.06h0a6.35,6.35,0,0,1,.25-3h0a1.78,1.78,0,0,0-.36-1.29h0a2.54,2.54,0,0,1-.11-.82h0l.47-1.87V78.26h0a9.18,9.18,0,0,0-.07-1.17h0a2.4,2.4,0,0,1,.18-1.17h0a.35.35,0,0,1,.05-.18h0a.21.21,0,0,0,.07-.17h0a4.12,4.12,0,0,1-.07-1.81h0a5.8,5.8,0,0,0,.07-1.82h0a4.06,4.06,0,0,0-.23-1.06h0a1.22,1.22,0,0,1,.11-1.51h0a1.6,1.6,0,0,0,.12-.7h0a2.4,2.4,0,0,1-.18-1.17h0a11.46,11.46,0,0,0,.06-1.17h0a6.87,6.87,0,0,0-.11-1.41h0a.53.53,0,0,1-.13-.59h0a1.87,1.87,0,0,0,.13-.58h0a6.32,6.32,0,0,0,.11-1.11h0a2.94,2.94,0,0,0-.24-1.12h0a2.21,2.21,0,0,1-.16-1.11h0a3.83,3.83,0,0,1,.29-1.1h0a2.28,2.28,0,0,0,.23-.59h0a18.91,18.91,0,0,1-.07-2.47h0c0-.78.1-1.6.18-2.45h0a4.12,4.12,0,0,0-.23-1.87h0a.76.76,0,0,1,0-.82h0a3.27,3.27,0,0,0,.12-1.46h0a3.11,3.11,0,0,1,.11-1.46h0a4.81,4.81,0,0,0-.05-1.65h0a3.86,3.86,0,0,1,.05-1.75h0a.9.9,0,0,0,0-.65h0c-.08-.27-.15-.53-.23-.77h0a5.12,5.12,0,0,0-.06-.74h0a1,1,0,0,1,.18-.77h0a.5.5,0,0,0,.11-.36h0c0-.85,0-1.71.06-2.56h0a11.92,11.92,0,0,0-.17-2.59h0a13.27,13.27,0,0,1-.12-1.69h0a3.18,3.18,0,0,1,.47-1.58h0a1.69,1.69,0,0,0,.17-1h0a3.89,3.89,0,0,1,.06-1.12h0a4.59,4.59,0,0,1,2.23-2.68h0a2.12,2.12,0,0,1,1.51-.54h0a4.63,4.63,0,0,0,1.65-.18h0l2.34-.34h0a1,1,0,0,0,.41-.07h0a.61.61,0,0,1,.42.07h0a2.67,2.67,0,0,0,1.33.11h0a2.35,2.35,0,0,1,1.24.12h0a.68.68,0,0,0,.7-.23h0a1.66,1.66,0,0,1,1.41-.11h0a3.56,3.56,0,0,0,1.4.16h0a4.69,4.69,0,0,1,1.53.18h0a2.33,2.33,0,0,0,1.87-.34h0a2,2,0,0,1,1.65,0h0a3,3,0,0,0,1.17.4h0c.39,0,.78.05,1.17.05h0a6,6,0,0,1,2-.11h0a.85.85,0,0,1,.82.7Zm27.88,19h0A3.25,3.25,0,0,0,472,48.3h0a5.18,5.18,0,0,1-.13,1.17h0a8.32,8.32,0,0,0,.36,2.46h0a2.14,2.14,0,0,1-.11,1.52h0A6.73,6.73,0,0,0,472,55h0a7.65,7.65,0,0,1,0,2.7h0a2.13,2.13,0,0,0,.12.69h0a2.91,2.91,0,0,1,.11.82h0a1.56,1.56,0,0,0-.06.71h0a.63.63,0,0,1-.17.59h0v.34h0a6.24,6.24,0,0,1,.17,1.93h0a11.31,11.31,0,0,0,.06,1.94h0a6.39,6.39,0,0,1,.07,1.46h0c-.05.51-.11,1-.18,1.58h0q-.12,1.29-.18,2.7h0a12.47,12.47,0,0,0,.18,2.79h0c.07.4.15.81.23,1.24h0a3.69,3.69,0,0,1,0,1.24h0a3.25,3.25,0,0,0,0,1.75h0a1.9,1.9,0,0,1-.12,1.51h0a1.51,1.51,0,0,0-.11.59h0a11.22,11.22,0,0,0-.07,1.93h0c0,.67.07,1.31.07,1.94h0a1.92,1.92,0,0,0,.23.58h0a1,1,0,0,1,.11.59h0q0,1.17.06,2.28h0a8.55,8.55,0,0,1-.17,2.29h0a13.3,13.3,0,0,0-.12,5.27h0a6.12,6.12,0,0,1,0,2.34h0a4.82,4.82,0,0,0-.11,2.45h0c.15.62.26,1.21.34,1.76h0c.09.54.17,1.13.24,1.75h0a3.39,3.39,0,0,1-.35,1.52h0a2.26,2.26,0,0,0-.18,1.12h0a9.48,9.48,0,0,1,.06,1.1h0v1.87h0a1.11,1.11,0,0,1-.36,1.06h0a2,2,0,0,1-1,.59h-2.7c-.46,0-.93,0-1.4.06h0a6.64,6.64,0,0,1-1.41-.06h0a2.84,2.84,0,0,1-.77-.12h0c-.27-.07-.52-.15-.75-.23h0c-.39-.08-.58-.36-.58-.83h0a3.92,3.92,0,0,0-.47-2h0a1.16,1.16,0,0,1,0-1.06h0a8.61,8.61,0,0,0,.18-2.16h0a14.66,14.66,0,0,1,0-2.29h0a.44.44,0,0,0-.11-.34h0a.49.49,0,0,1-.11-.36h0a1.93,1.93,0,0,1,0-1.87h0a1.25,1.25,0,0,0,.18-.81h0a6.08,6.08,0,0,1-.07-1h0V95.6h0a2.28,2.28,0,0,0-.11-.83h0a2.41,2.41,0,0,1-.36-1.29h0a9.54,9.54,0,0,1,.11-1.4h0a1,1,0,0,0,0-.71h0a3.58,3.58,0,0,0-.05-.59h0a1,1,0,0,1,.05-.58h0a5.58,5.58,0,0,0,.3-1.46h0a6.54,6.54,0,0,0-.05-1.47h0a9.56,9.56,0,0,1-.07-1.75h0a5,5,0,0,0-.18-1.76h0a2.26,2.26,0,0,1,.13-1.22h0a2.4,2.4,0,0,0,.12-1.23h0a6.48,6.48,0,0,1-.07-1.47h0a3.26,3.26,0,0,0-.18-1.46h0a2,2,0,0,1,0-1.87h0a1.34,1.34,0,0,0,.18-.88h0a7.89,7.89,0,0,1-.05-.88h0v-2h0a6.5,6.5,0,0,0-.36-2.11h0q-.22-.12,0-.36h0a7,7,0,0,0,.23-1.76h0a6.71,6.71,0,0,1,.25-1.75h0a2.51,2.51,0,0,0-.12-1.29h0a3.66,3.66,0,0,1,0-2.57h0v-.7h0a2,2,0,0,1-.06-.87h0a6.4,6.4,0,0,0,.06-.88h0a6.68,6.68,0,0,1-.06-1.6h0c0-.49.06-1,.06-1.57h0a4.44,4.44,0,0,0-.24-1.64h0a1.13,1.13,0,0,1-.12-.82h0a2.72,2.72,0,0,0,.18-1.28h0a2.74,2.74,0,0,1,.18-1.29h0a1.13,1.13,0,0,0,.05-.65h0a4.19,4.19,0,0,1-.05-.65h0c0-.46,0-.91.05-1.33h0a2.94,2.94,0,0,0-.18-1.35h0a1,1,0,0,1-.05-.58h0a3.58,3.58,0,0,0,.05-.59h0a5.44,5.44,0,0,0,.18-1.87h0q0-.94-.18-1.89h0a5.85,5.85,0,0,1-.23-1.57h0a3.19,3.19,0,0,1,.36-1.47h0a.57.57,0,0,1,.05-.29h0c.05,0,.07-.09.07-.18h0a3.93,3.93,0,0,1-.18-1.57h0a3.63,3.63,0,0,0-.18-1.47h0a2.74,2.74,0,0,1,.11-1.75h0a5.13,5.13,0,0,0,.25-1.52h0a8.39,8.39,0,0,0-.12-1.41h0a5.68,5.68,0,0,1,.12-2.57h0a.26.26,0,0,1,.05-.18h0a.24.24,0,0,0,.06-.18h0a1.7,1.7,0,0,1,1.76-1.51h1.93a13.64,13.64,0,0,0,1.94-.13h1.28c.55-.23,1,0,1.4.59h0l.59.71h0l.24.46h0a.49.49,0,0,1,0,.47h0a2.49,2.49,0,0,0-.06.94h0a7.38,7.38,0,0,1,.06.93h0a6.4,6.4,0,0,1,0,1.75h0a14.77,14.77,0,0,0,0,3.76h0c0,.62,0,1.26-.06,1.93h0q-.06,1-.18,1.92h0v.47h0a3.45,3.45,0,0,1,.11,1.58h0a5.1,5.1,0,0,0,0,1.46h0a2,2,0,0,1,.13.72h0a1.32,1.32,0,0,0,.23.7h0a1.52,1.52,0,0,1,0,1.17Zm48.84,59.23h0a.85.85,0,0,1,.24.65h0a3.63,3.63,0,0,0,.12.88h0a7.26,7.26,0,0,0,.22,1.17h0c.17.62.13,1-.11,1.17h0a1.72,1.72,0,0,1-.7.11h0c-.31,0-.64,0-1,0h0a7.19,7.19,0,0,1-1,.07h0c-.63,0-1.32,0-2.05-.07h0a12.26,12.26,0,0,0-2,.07h0q-1.31.23-1.47-.36h0a5.5,5.5,0,0,0-.53-1.17h0v-.34h0a5.74,5.74,0,0,0-.41-2.17h0c-.27-.67-.56-1.35-.88-2h0a5,5,0,0,1-.36-2h0a1.06,1.06,0,0,0,.07-.93h0l-.41-1.06h0l-.7-1.82h0a12.58,12.58,0,0,1-.58-1.8h0a.77.77,0,0,1-.07-.54h0a2.67,2.67,0,0,0,.07-.52h0a2.38,2.38,0,0,0-.36-1.28h0a7,7,0,0,1-.82-1.83h0a11.72,11.72,0,0,1-.35-1.82h0a1.37,1.37,0,0,0-.18-.74h0a3.2,3.2,0,0,0-.41-.54h0a1.59,1.59,0,0,1-.47-1.17h0a4.43,4.43,0,0,0-1.4-2.81h0a1.3,1.3,0,0,0-1.24-.3h0a1.28,1.28,0,0,0-1,.77h0a6.82,6.82,0,0,0-.36.88h0a1.73,1.73,0,0,1-.45.76h0c-.32.24-.47.75-.47,1.53h0a3.54,3.54,0,0,1-.59,1.87h0a2.84,2.84,0,0,0-.59,1.35h0c-.07.5-.15,1-.24,1.57h0c-.08.47-.15.92-.23,1.35h0a2.64,2.64,0,0,1-.58,1.22h0a2.22,2.22,0,0,0-.47,1.17h0c0,.39,0,.78,0,1.17h0a9.23,9.23,0,0,0-.07,1.18h0a1.42,1.42,0,0,1-.36,1h0a3.09,3.09,0,0,0-.63,1.64h0a3.86,3.86,0,0,1-.54,1.65h0a.41.41,0,0,0-.05.34h0a.8.8,0,0,1,.05.36h0a12.65,12.65,0,0,1-.29,1.51h0a2.71,2.71,0,0,1-.75,1.3h0a1.11,1.11,0,0,0-.13.58h0a1,1,0,0,0-.11.59h0a1.91,1.91,0,0,1-2.1,1.62h0a16.11,16.11,0,0,1-1.94-.11h0l-2.05-.23h0a4,4,0,0,0-.88-.11h0a2.71,2.71,0,0,1-1-.24h0c-.48-.16-.67-.55-.58-1.18h0v-.58h0a1.49,1.49,0,0,1-.07-1.11h0a8.9,8.9,0,0,1,.41-1h0a4.79,4.79,0,0,0,.7-2.47h0a2.6,2.6,0,0,1,.24-1.51h0c.15-.39.33-.8.52-1.24h0a12.9,12.9,0,0,1,.65-1.22h0l.23-1.17h0c.16-.55.32-1.06.47-1.53h0c.15-.46.31-.93.47-1.39h0a10,10,0,0,0,.41-1.3h0a5.66,5.66,0,0,0,.18-1.4h0a1.74,1.74,0,0,1,.18-.82h0a1.91,1.91,0,0,0,.16-.82h0a.7.7,0,0,1,.36-.59h0a4.92,4.92,0,0,0,.81-2h0c.17-.71.31-1.39.43-2h0a6.67,6.67,0,0,1,.63-1.94h0a4.57,4.57,0,0,0,.54-1.28h0a3.1,3.1,0,0,0-.07-1.53h0a1,1,0,0,1,.59-1.28h0a2.69,2.69,0,0,0,.58-1h0c.16-.61.35-1.28.59-2h0a6.5,6.5,0,0,0,.36-2.11h0a3.81,3.81,0,0,1,.22-.93h0a7,7,0,0,0,1-3.87h0a2,2,0,0,1,.34-1.4h0a2.51,2.51,0,0,0,.36-2h0a4.43,4.43,0,0,1-.25-1.46h0a3.18,3.18,0,0,1,.36-1.46h0a.75.75,0,0,0,0-.59h0l-.58-2.21-.36-.72h0a2.5,2.5,0,0,1-.7-1.87h0a5,5,0,0,0-.23-2.09h0c-.24-.71-.47-1.41-.7-2.12h0a3.68,3.68,0,0,1-.24-1.17h0a3.69,3.69,0,0,0-.59-1.4h0a1.46,1.46,0,0,1-.47-1.05h0a6.62,6.62,0,0,0-.11-1.17h0c-.08-.39-.14-.77-.18-1.13h0a2.72,2.72,0,0,0-.41-1.1h0a4.92,4.92,0,0,1-.81-2h0a9.36,9.36,0,0,0-.95-3.29h0a5.58,5.58,0,0,1-.47-2h0c0-.32-.07-.47-.23-.47h0a2.38,2.38,0,0,1-.7-1.24h0a5.68,5.68,0,0,0-.35-1.22h0l-.59-1.41h0a2.2,2.2,0,0,1-.23-.93h0a6.16,6.16,0,0,0-.11-1.06h0c-.09-.55-.17-1.1-.24-1.64h0a3.84,3.84,0,0,0-.59-1.53h0a4.52,4.52,0,0,1-.7-1.92h0a17.2,17.2,0,0,1-.11-2h0a1.14,1.14,0,0,1,1.17-1.06h0a19.51,19.51,0,0,0,2.05-.11h0a15.14,15.14,0,0,1,2-.13h0a1.84,1.84,0,0,1,1.05.06h0a9.41,9.41,0,0,1,.93.41h0a.66.66,0,0,1,.47.47h0l.23.47h0a1.92,1.92,0,0,1,.72,1.06h0a6.45,6.45,0,0,0,.34,1.17h0a6.16,6.16,0,0,1,.36,1.28h0a6.08,6.08,0,0,0,.34,1.29h0c.24.54.45,1.06.65,1.57h0c.19.51.37,1,.52,1.58h0a23.23,23.23,0,0,0,1.3,3.06h0a14,14,0,0,1,1,3.26h0a7,7,0,0,1,.36,1.13h0a2.08,2.08,0,0,0,.59,1h0a2.07,2.07,0,0,1,.4.63h0a5.08,5.08,0,0,0,.41.77h0a2.14,2.14,0,0,0,2.11,1.28h0a.77.77,0,0,0,.7-.34h0A10.59,10.59,0,0,0,507,45h0a3,3,0,0,0,.41-1.06h0l.23-.7h0a6.56,6.56,0,0,0,1.06-2h0a18.63,18.63,0,0,0,.58-2.23h0a9,9,0,0,0,.36-1.4h0a2.7,2.7,0,0,1,.59-1.3h0A5.29,5.29,0,0,0,511.23,34h0l.23-.7h0c.32-.86.59-1.67.81-2.45h0a15,15,0,0,1,1-2.35h0a7,7,0,0,1,1.53-2.11h0a1.76,1.76,0,0,1,1-.7h0a3.29,3.29,0,0,1,1.17,0h0c.55.08,1.1.14,1.64.18h0a6.39,6.39,0,0,1,1.53.29h0a1.3,1.3,0,0,1,1.17,1.17h0a11.46,11.46,0,0,1-.06,1.17h0a3.86,3.86,0,0,1-.29,1.17h0c-.16.39-.31.81-.48,1.24h0a3,3,0,0,0-.11,1.46h0a2.28,2.28,0,0,1-.23.59h0c-.07.39-.16.74-.24,1h0a9.75,9.75,0,0,1-.34,1.06h0a4.41,4.41,0,0,1-.59,1.41h0a3,3,0,0,0-.36,1.4h0a6.14,6.14,0,0,1-.05.88h0a.91.91,0,0,1-.53.65h0a.65.65,0,0,0-.23.7h0a1.76,1.76,0,0,1,0,.92h0a6,6,0,0,1-.36.83h0c-.15.54-.31,1.07-.47,1.58h0c-.15.51-.3,1.07-.46,1.69h0a.45.45,0,0,1-.13.36h0a2.39,2.39,0,0,0-.7,1.35h0a8.63,8.63,0,0,1-.34,1.46h0a.9.9,0,0,0-.13.59h0a.74.74,0,0,1,.07.76h0c-.12.2-.26.41-.41.63h0a4.45,4.45,0,0,0-.94,3h0a.91.91,0,0,1-.12.59h0l-.58.72h0a7.69,7.69,0,0,1-.52.87h0a1,1,0,0,0-.07,1h0a1.33,1.33,0,0,1-.47,1.4h0a5.05,5.05,0,0,0-.93,3h0c-.08.32-.14.59-.18.83h0a2,2,0,0,1-.29.7h0a2.83,2.83,0,0,0-.58,1.87h0a3,3,0,0,0,0,1.76h0a2.07,2.07,0,0,1-.12.83h0a1.68,1.68,0,0,0,.12,1.62h0a9.6,9.6,0,0,0,.47,1.06h0a1.3,1.3,0,0,1,0,1.06h0a.49.49,0,0,0,.11.58h0a3.19,3.19,0,0,1,.81,1.76h0a15,15,0,0,0,.36,1.87h0c.08.39.15.74.23,1h0a7.83,7.83,0,0,0,.36,1.06h0c.15.47.31.92.47,1.35h0a4.09,4.09,0,0,0,.7,1.22h0a1.66,1.66,0,0,1,.23,1.41h0a.71.71,0,0,0-.12.64h0a1.66,1.66,0,0,0,.36.53h0a2.82,2.82,0,0,1,.34.7h0a3.11,3.11,0,0,0,.36.7h0a2,2,0,0,1,.11.82h0c.16.86.33,1.64.53,2.34h0a9.42,9.42,0,0,0,.87,2.11h0a3.54,3.54,0,0,1,.59,1.87h0a3.47,3.47,0,0,0,.24,1.76h0a26.76,26.76,0,0,1,1.06,3.87h0v.34h0a2.75,2.75,0,0,1,.64,1.59h0a8.41,8.41,0,0,0,.29,1.69h0a4.74,4.74,0,0,0,.47,1.29h0a2.24,2.24,0,0,1,.47,1.64h0v.36h0a2.59,2.59,0,0,1,.47,1.51h0a3.37,3.37,0,0,0,.46,1.64Z"/></g></g></g></svg>